<svg width="142" height="32" viewBox="0 0 142 32" fill="none" xmlns="http://www.w3.org/2000/svg">
<g clip-path="url(#clip0_1180_31738)">
<path d="M63.4507 9.59998C66.9823 9.59998 69.8507 12.4683 69.8507 16C69.8507 19.5316 66.9823 22.4 63.4507 22.4C59.919 22.4 57.0507 19.5316 57.0507 16C57.0507 12.4683 59.919 9.59998 63.4507 9.59998ZM63.4507 7.27271C58.6332 7.27271 54.7234 11.1825 54.7234 16C54.7234 20.8174 58.6332 24.7273 63.4507 24.7273C68.2681 24.7273 72.1779 20.8174 72.1779 16C72.1779 11.1825 68.2681 7.27271 63.4507 7.27271Z" fill="#2F3239"/>
<path d="M126.875 9.59998C127.515 9.59998 128.038 9.07634 128.038 8.43634V7.27271H116.402V24.7273H126.875C127.515 24.7273 128.038 24.2036 128.038 23.5636V22.4H118.729V17.1636H126.875V14.8363H118.729V9.59998H126.875Z" fill="#2F3239"/>
<path d="M95.4506 7.27271H88.4688V9.59998H93.1233V24.7273H94.2869C94.9269 24.7273 95.4506 24.2036 95.4506 23.5636V9.59998H98.9415C99.5815 9.59998 100.105 9.07634 100.105 8.43634V7.27271H95.4506Z" fill="#2F3239"/>
<path d="M46.5779 7.27271H40.7598V24.7273H41.9234C42.5634 24.7273 43.087 24.2036 43.087 23.5636V18.9091H46.5779C49.7896 18.9091 52.3961 16.3025 52.3961 13.0909C52.3961 9.87925 49.7896 7.27271 46.5779 7.27271ZM46.5779 16.5818H43.087V9.59998H46.5779C48.5038 9.59998 50.0689 11.1651 50.0689 13.0909C50.0689 15.0167 48.5038 16.5818 46.5779 16.5818Z" fill="#2F3239"/>
<path d="M86.1415 13.0909C86.1415 9.87925 83.5349 7.27271 80.3233 7.27271H74.5051V24.7273H75.6688C76.3088 24.7273 76.8324 24.2036 76.8324 23.5636V18.9091H80.0964L83.4535 24.7273H86.1415L82.5284 18.4727C84.6462 17.6058 86.1415 15.5229 86.1415 13.0909ZM76.8324 9.59998H80.3233C82.2491 9.59998 83.8142 11.1651 83.8142 13.0909C83.8142 15.0167 82.2491 16.5818 80.3233 16.5818H76.8324V9.59998Z" fill="#2F3239"/>
<path d="M111.387 24.7273H114.075L108.152 14.4756L112.312 7.27271H109.624L104.76 15.6916V7.27271H102.433V24.7273H103.596C104.236 24.7273 104.76 24.2036 104.76 23.5636V20.3462L106.808 16.7971L111.387 24.7214V24.7273Z" fill="#2F3239"/>
<path d="M142.002 7.27271H139.314L136.184 12.6953L133.054 7.27271H130.366L135.02 15.3367V24.7273H136.184C136.824 24.7273 137.348 24.2036 137.348 23.5636V15.3367L142.002 7.27271Z" fill="#2F3239"/>
<path d="M13.6668 5.82401C9.38466 7.70329 6.69084 12.2996 8.25593 16.8611C9.20429 19.6189 11.1127 21.5913 13.9519 22.5978C18.909 24.3549 24.0756 20.4916 23.4996 15.4647C23.2494 13.3295 22.1672 11.7062 19.9679 11.0255C18.333 10.5251 16.7621 10.7578 15.4763 11.9506C14.3941 12.9571 13.9752 14.2022 14.4116 15.6509C14.6501 16.448 15.2261 16.9426 16.0116 17.1753C16.6981 17.3847 17.2334 17.0822 17.6465 16.512C17.565 16.3724 17.4894 16.2211 17.3905 16.0931C16.8552 15.4007 17.2857 14.3942 17.7512 13.9753C18.3796 13.4051 19.3977 13.3527 20.0727 13.824C21.1548 14.5862 21.6552 16.6167 21.0617 17.8967C20.0727 20.032 17.5301 21.2713 15.2028 20.6662C11.5257 19.712 9.71047 16.0756 10.8974 12.5673C12.4741 7.9011 17.7803 5.85892 22.301 8.09892C25.9548 9.90838 27.3105 13.0618 27.1708 16.8262C26.9323 23.0167 20.6894 27.6073 14.4232 26.4146C8.34902 25.2567 3.83411 19.4386 4.15993 13.9404C4.27629 11.9098 4.73593 10.0073 5.77156 8.26183C8.46538 3.71783 12.6777 1.58256 17.9432 1.23347C19.3279 1.14038 20.7301 1.21601 22.0508 1.21601C21.981 1.18692 21.8123 1.09965 21.6436 1.04147C19.0661 0.0814661 16.4072 -0.226898 13.6843 0.162921C11.997 0.372375 10.4319 0.832012 9.01811 1.47783C8.99484 1.47783 8.95993 1.48947 8.92502 1.50692C8.29084 1.78038 8.18029 1.15783 7.95338 0.96583C7.73229 0.785466 7.76138 1.01238 7.76138 1.01238C7.95338 1.92583 7.47047 2.29238 7.40647 2.33892C7.00502 2.5891 6.62102 2.85674 6.24866 3.14183C6.23702 3.14183 6.22538 3.14183 6.21956 3.15347C5.34102 3.55492 4.97447 2.87419 4.57302 2.67056C4.14247 2.45528 4.30538 2.81019 4.30538 2.81019C4.83484 3.86328 4.3752 4.7651 4.28793 4.91056C3.91556 5.31201 3.56647 5.73674 3.23484 6.17892C3.19993 6.20219 3.16502 6.21965 3.12429 6.25456C2.2632 7.03419 1.58829 6.41747 1.05884 6.3011C0.471201 6.1731 0.802838 6.5571 0.802838 6.5571C1.89084 7.67419 1.54756 9.01238 1.54756 9.01238C0.157019 12.0378 -0.343344 15.5346 0.238474 19.0429C2.15266 30.5804 16.3432 36.032 25.6407 28.5964C28.6603 26.1818 30.7548 21.5331 30.9759 17.6873C31.133 14.9527 30.2894 12.4742 28.7301 10.2342C25.4254 5.4691 18.8217 3.56074 13.661 5.82401H13.6668Z" fill="#5B8EF4"/>
</g>
<defs>
<clipPath id="clip0_1180_31738">
<rect width="142" height="32" fill="white"/>
</clipPath>
</defs>
</svg>
