<svg width="24" height="24" viewBox="0 0 24 24" fill="none" xmlns="http://www.w3.org/2000/svg">
<path d="M2.8125 20.4375C2.8125 20.8517 3.14829 21.1875 3.5625 21.1875L20.4375 21.1875C20.8517 21.1875 21.1875 20.8517 21.1875 20.4375V13.7896C21.1875 13.624 21.0532 13.4896 20.8875 13.4896H19.6125C19.4468 13.4896 19.3125 13.624 19.3125 13.7896V19.3125L4.6875 19.3125L4.6875 4.6875L10.2033 4.6875C10.369 4.6875 10.5033 4.55319 10.5033 4.3875V3.1125C10.5033 2.94681 10.369 2.8125 10.2033 2.8125H3.5625C3.14829 2.8125 2.8125 3.14829 2.8125 3.5625V20.4375ZM20.469 3.20883C20.6524 3.19472 20.8052 3.34752 20.7911 3.53095L20.3377 9.42593C20.318 9.68148 20.0077 9.79629 19.8264 9.61505L17.7684 7.55707L10.3298 14.9957C10.2127 15.1129 10.0227 15.1129 9.90554 14.9957L9.00398 14.0941C8.88683 13.977 8.88683 13.787 9.00398 13.6699L16.4426 6.23125L14.3849 4.17353C14.2037 3.9923 14.3185 3.68194 14.574 3.66229L20.469 3.20883Z" fill="#5B8EF4"/>
</svg>
