<svg width="24" height="24" viewBox="0 0 24 24" fill="none" xmlns="http://www.w3.org/2000/svg">
<path fill-rule="evenodd" clip-rule="evenodd" d="M1.50002 19.3327C1.84534 19.3763 2.19794 19.4 2.55417 19.4C4.62432 19.4036 6.52907 18.6566 8.03941 17.4025C6.10558 17.3571 4.47528 15.9903 3.91367 14.1146C4.18266 14.171 4.46074 14.2037 4.74428 14.2055C5.14776 14.2073 5.53671 14.1528 5.90748 14.0474C3.88641 13.6003 2.36334 11.6828 2.36334 9.39821C2.36334 9.37822 2.36334 9.35822 2.36334 9.33823C2.95948 9.6981 3.63923 9.9162 4.36442 9.94891C3.18122 9.09287 2.4015 7.63886 2.4015 6.00311C2.4015 5.13797 2.61961 4.331 2.99947 3.64034C5.17866 6.5211 8.43383 8.4331 12.1034 8.67122C12.027 8.32771 11.9889 7.96966 11.9889 7.60434C11.9889 5.02166 13.9663 2.96059 16.4054 3.00057C17.6758 3.02238 18.8245 3.6058 19.6297 4.52183C20.6366 4.32917 21.5817 3.9584 22.4341 3.44041C22.1051 4.51819 21.4035 5.41604 20.4912 5.97766C21.3854 5.87769 22.236 5.64142 23.0284 5.28337C22.4359 6.20484 21.6871 7.01 20.8238 7.6534C20.8329 7.85333 20.8365 8.05325 20.8365 8.25318C20.8365 14.3854 16.3927 21.4574 8.2684 21.4538C5.77659 21.4556 3.45381 20.6741 1.5 19.3327L1.50002 19.3327Z" fill="#515A62"/>
</svg>
