<svg width="24" height="24" viewBox="0 0 24 24" fill="none" xmlns="http://www.w3.org/2000/svg">
<path fill-rule="evenodd" clip-rule="evenodd" d="M19.8262 5.14355C22.3673 8.73934 23.6223 12.7953 23.1531 17.4646C23.1512 17.4844 23.1405 17.5025 23.1236 17.5144C21.1993 18.8743 19.3349 19.6997 17.4966 20.247C17.4673 20.2556 17.4355 20.2452 17.4176 20.2213C16.9929 19.6526 16.607 19.053 16.269 18.4234C16.2496 18.3863 16.2673 18.3416 16.3072 18.327C16.9201 18.1048 17.5028 17.8384 18.0634 17.5231C18.1075 17.4982 18.1103 17.4373 18.0695 17.408C17.9506 17.323 17.8327 17.2337 17.72 17.1444C17.6989 17.1279 17.6705 17.1246 17.6465 17.1357C14.0075 18.7531 10.021 18.7531 6.33891 17.1357C6.315 17.1254 6.28659 17.129 6.26606 17.1452C6.15356 17.2345 6.03544 17.323 5.9176 17.408C5.87681 17.4373 5.88019 17.4982 5.92463 17.5231C6.48516 17.8325 7.06791 18.1048 7.6799 18.3281C7.71956 18.3427 7.7384 18.3863 7.71872 18.4234C7.38797 19.0538 7.00209 19.6534 6.56953 20.2221C6.55069 20.2451 6.51975 20.2557 6.4905 20.247C4.66097 19.6997 2.79657 18.8743 0.87226 17.5144C0.856229 17.5025 0.844698 17.4836 0.84301 17.4638C0.450948 13.4249 1.24998 9.33539 4.16682 5.14274C4.17385 5.13164 4.18454 5.12298 4.19691 5.11784C5.63213 4.48389 7.16972 4.0175 8.77678 3.75114C8.80603 3.74681 8.83528 3.75981 8.85047 3.78471C9.04903 4.12307 9.276 4.55698 9.42956 4.91157C11.1235 4.66254 12.8439 4.66254 14.5733 4.91157C14.7269 4.56455 14.946 4.12307 15.1437 3.78471C15.1581 3.75937 15.1879 3.74583 15.2174 3.75114C16.8253 4.01831 18.3629 4.4847 19.797 5.11784C19.8096 5.12298 19.82 5.13164 19.8262 5.14355ZM10.2912 12.823C10.3089 11.629 9.40438 10.641 8.26897 10.641C7.14285 10.641 6.24707 11.6203 6.24707 12.823C6.24707 14.0254 7.16057 15.0047 8.26897 15.0047C9.39538 15.0047 10.2912 14.0254 10.2912 12.823ZM17.7669 12.823C17.7846 11.629 16.8801 10.641 15.745 10.641C14.6186 10.641 13.7228 11.6203 13.7228 12.823C13.7228 14.0254 14.6363 15.0047 15.745 15.0047C16.8801 15.0047 17.7669 14.0254 17.7669 12.823Z" fill="#515A62"/>
</svg>
