<svg width="24" height="24" viewBox="0 0 24 24" fill="none" xmlns="http://www.w3.org/2000/svg">
<g clip-path="url(#clip0_4446_5103)">
<path d="M13.54 11.9999C13.5453 13.8017 12.8354 15.5319 11.566 16.8106C10.2967 18.0893 8.57177 18.812 6.77003 18.8199C4.96829 18.812 3.24335 18.0893 1.97402 16.8106C0.704678 15.5319 -0.00528713 13.8017 2.96483e-05 11.9999C-0.00528713 10.1982 0.704678 8.46798 1.97402 7.18926C3.24335 5.91055 4.96829 5.18787 6.77003 5.17993C8.57177 5.18787 10.2967 5.91055 11.566 7.18926C12.8354 8.46798 13.5453 10.1982 13.54 11.9999ZM20.96 11.9999C20.96 15.5399 19.45 18.4199 17.58 18.4199C15.71 18.4199 14.19 15.5399 14.19 11.9999C14.19 8.45993 15.71 5.57993 17.58 5.57993C19.45 5.57993 20.96 8.45993 20.96 11.9999ZM24 11.9999C24 15.1699 23.47 17.7499 22.81 17.7499C22.15 17.7499 21.62 15.1699 21.62 11.9999C21.62 8.82993 22.15 6.24993 22.81 6.24993C23.47 6.24993 24 8.82993 24 11.9999Z" fill="#515A62"/>
</g>
<defs>
<clipPath id="clip0_4446_5103">
<rect width="24" height="24" fill="white"/>
</clipPath>
</defs>
</svg>
