<svg width="24" height="24" viewBox="0 0 24 24" fill="none" xmlns="http://www.w3.org/2000/svg">
<path d="M12.0012 1.5C6.19925 1.49766 1.5 6.17757 1.5 11.9538C1.5 16.5215 4.43967 20.4043 8.53363 21.8303C9.08496 21.9682 9.0005 21.5778 9.0005 21.3113V19.4997C5.81684 19.8713 5.6878 17.7722 5.4743 17.4215C5.04262 16.6875 4.02206 16.5005 4.32706 16.1498C5.05201 15.7782 5.79103 16.2434 6.64736 17.5033C7.26673 18.4173 8.47497 18.2631 9.08731 18.1111C9.22104 17.5618 9.50726 17.0709 9.90141 16.6898C6.60278 16.1008 5.22796 14.0951 5.22796 11.7107C5.22796 10.5536 5.61038 9.48998 6.36113 8.63207C5.88253 7.21781 6.40571 6.00693 6.47609 5.82693C7.83918 5.70537 9.25623 6.79938 9.3665 6.88587C10.1407 6.67782 11.0252 6.56796 12.0153 6.56796C13.01 6.56796 13.8968 6.6825 14.6781 6.89288C14.9432 6.69185 16.257 5.75213 17.5239 5.86667C17.5919 6.04667 18.1034 7.2295 17.6529 8.62506C18.4131 9.4853 18.8002 10.5583 18.8002 11.7177C18.8002 14.1068 17.416 16.1148 14.108 16.6945C14.6593 17.2368 15.0018 17.9896 15.0018 18.8217V21.4516C15.0206 21.662 15.0018 21.87 15.3538 21.87C19.5087 20.4744 22.5 16.5636 22.5 11.9562C22.5 6.17757 17.7984 1.5 12.0012 1.5Z" fill="#515A62"/>
</svg>
